<svg xmlns="http://www.w3.org/2000/svg" xmlns:xlink="http://www.w3.org/1999/xlink" version="1.1" width="256" height="256" viewBox="0 0 256 256" xml:space="preserve">
<g style="stroke: none; stroke-width: 0; stroke-dasharray: none; stroke-linecap: butt; stroke-linejoin: miter; stroke-miterlimit: 10; fill: none; fill-rule: nonzero; opacity: 1;" transform="translate(1.4065934065934016 1.4065934065934016) scale(2.81 2.81)">
	<path d="M 56.411 34.124 c -0.553 0 -1 -0.448 -1 -1 V 10.576 c 0 -0.552 0.447 -1 1 -1 s 1 0.448 1 1 v 22.547 C 57.411 33.676 56.964 34.124 56.411 34.124 z" style="stroke: none; stroke-width: 1; stroke-dasharray: none; stroke-linecap: butt; stroke-linejoin: miter; stroke-miterlimit: 10; fill: rgb(188,203,206); fill-rule: nonzero; opacity: 1;" transform=" matrix(1 0 0 1 0 0) " stroke-linecap="round"/>
	<path d="M 56.411 11.576 c -3.467 0 -6.288 -2.821 -6.288 -6.288 S 52.944 -1 56.411 -1 s 6.288 2.821 6.288 6.288 S 59.878 11.576 56.411 11.576 z M 56.411 1 c -2.364 0 -4.288 1.924 -4.288 4.288 s 1.924 4.288 4.288 4.288 s 4.288 -1.924 4.288 -4.288 S 58.775 1 56.411 1 z" style="stroke: none; stroke-width: 1; stroke-dasharray: none; stroke-linecap: butt; stroke-linejoin: miter; stroke-miterlimit: 10; fill: rgb(188,203,206); fill-rule: nonzero; opacity: 1;" transform=" matrix(1 0 0 1 0 0) " stroke-linecap="round"/>
	<path d="M 84.025 90 H 5.975 c -3.193 0 -5.781 -2.588 -5.781 -5.781 V 38.904 c 0 -3.193 2.588 -5.781 5.781 -5.781 h 78.049 c 3.193 0 5.781 2.588 5.781 5.781 v 45.315 C 89.806 87.412 87.217 90 84.025 90 z" style="stroke: none; stroke-width: 1; stroke-dasharray: none; stroke-linecap: butt; stroke-linejoin: miter; stroke-miterlimit: 10; fill: rgb(46,140,204); fill-rule: nonzero; opacity: 1;" transform=" matrix(1 0 0 1 0 0) " stroke-linecap="round"/>
	<path d="M 66.071 64.463 h -0.311 c -3.782 0 -6.848 -3.066 -6.848 -6.848 v -3.466 c 0 -3.782 3.066 -6.848 6.848 -6.848 h 0.311 c 3.782 0 6.848 3.066 6.848 6.848 v 3.466 C 72.919 61.397 69.853 64.463 66.071 64.463 z" style="stroke: none; stroke-width: 1; stroke-dasharray: none; stroke-linecap: butt; stroke-linejoin: miter; stroke-miterlimit: 10; fill: rgb(221,234,237); fill-rule: nonzero; opacity: 1;" transform=" matrix(1 0 0 1 0 0) " stroke-linecap="round"/>
	<path d="M 78.43 78.471 v -1.494 c 0 -6.912 -5.603 -12.515 -12.515 -12.515 h 0 c -6.912 0 -12.515 5.603 -12.515 12.515 v 1.494 H 78.43 z" style="stroke: none; stroke-width: 1; stroke-dasharray: none; stroke-linecap: butt; stroke-linejoin: miter; stroke-miterlimit: 10; fill: rgb(221,234,237); fill-rule: nonzero; opacity: 1;" transform=" matrix(1 0 0 1 0 0) " stroke-linecap="round"/>
	<path d="M 43.164 66.865 H 11.57 c -0.552 0 -1 -0.447 -1 -1 s 0.448 -1 1 -1 h 31.593 c 0.552 0 1 0.447 1 1 S 43.716 66.865 43.164 66.865 z" style="stroke: none; stroke-width: 1; stroke-dasharray: none; stroke-linecap: butt; stroke-linejoin: miter; stroke-miterlimit: 10; fill: rgb(221,234,237); fill-rule: nonzero; opacity: 1;" transform=" matrix(1 0 0 1 0 0) " stroke-linecap="round"/>
	<path d="M 43.164 78.471 H 11.57 c -0.552 0 -1 -0.447 -1 -1 s 0.448 -1 1 -1 h 31.593 c 0.552 0 1 0.447 1 1 S 43.716 78.471 43.164 78.471 z" style="stroke: none; stroke-width: 1; stroke-dasharray: none; stroke-linecap: butt; stroke-linejoin: miter; stroke-miterlimit: 10; fill: rgb(221,234,237); fill-rule: nonzero; opacity: 1;" transform=" matrix(1 0 0 1 0 0) " stroke-linecap="round"/>
	<path d="M 43.164 55.242 H 11.57 c -0.552 0 -1 -0.447 -1 -1 s 0.448 -1 1 -1 h 31.593 c 0.552 0 1 0.447 1 1 S 43.716 55.242 43.164 55.242 z" style="stroke: none; stroke-width: 1; stroke-dasharray: none; stroke-linecap: butt; stroke-linejoin: miter; stroke-miterlimit: 10; fill: rgb(221,234,237); fill-rule: nonzero; opacity: 1;" transform=" matrix(1 0 0 1 0 0) " stroke-linecap="round"/>
	<path d="M 45 48.321 c -6.844 0 -12.411 -5.568 -12.411 -12.412 V 20.579 c 0 -0.404 0.244 -0.769 0.617 -0.924 c 0.375 -0.154 0.804 -0.069 1.09 0.217 l 4.024 4.024 c 0.391 0.39 0.391 1.023 0 1.414 s -1.023 0.391 -1.414 0 l -2.317 -2.317 V 35.91 c 0 5.741 4.67 10.412 10.411 10.412 c 0.552 0 1 0.447 1 1 S 45.552 48.321 45 48.321 z" style="stroke: none; stroke-width: 1; stroke-dasharray: none; stroke-linecap: butt; stroke-linejoin: miter; stroke-miterlimit: 10; fill: rgb(188,203,206); fill-rule: nonzero; opacity: 1;" transform=" matrix(1 0 0 1 0 0) " stroke-linecap="round"/>
</g>
</svg>